<svg width="24" height="24" viewBox="0 0 24 24" fill="none" xmlns="http://www.w3.org/2000/svg">
    <g clip-path="url(#clip0_65_2829)">
        <path d="M20 9.03V19.97C20 20.54 19.54 21 18.97 21H17.03C16.46 21 16 20.54 16 19.97V9.03C16 8.46 16.46 8 17.03 8H18.97C19.54 8 20 8.46 20 9.03Z" fill="white"/>
        <path d="M14 5.17V19.83C14 20.47 13.47 21 12.83 21H11.17C10.53 21 10 20.47 10 19.83V5.17C10 4.53 10.53 4 11.17 4H12.83C13.47 4 14 4.53 14 5.17Z" fill="white"/>
        <path d="M8 12.85V20.15C8 20.62 7.62 21 7.15 21H4.85C4.38 21 4 20.62 4 20.15V12.85C4 12.38 4.38 12 4.85 12H7.15C7.62 12 8 12.38 8 12.85Z" fill="white"/>
    </g>
    <defs>
        <clipPath id="clip0_65_2829">
            <rect width="24" height="24" fill="white"/>
        </clipPath>
    </defs>
</svg>
