<svg width="24" height="24" viewBox="0 0 24 24" fill="none" xmlns="http://www.w3.org/2000/svg">
    <g clip-path="url(#clip0_65_2842)">
        <path d="M18.99 11.35C19 11.27 19 11.19 19 11.11V9.89C19 6.64 16.36 4 13.11 4H7.89C4.64 4 2 6.64 2 9.89V16C2 16.55 2.45 17 3 17H8.07C8.44 19.27 10.41 21 12.78 21H21C21.55 21 22 20.55 22 20V15.78C22 13.77 20.75 12.04 18.99 11.35ZM7.73 10.74C7.71 10.82 7.69 10.9 7.65 10.98C7.62 11.05 7.58 11.13 7.54 11.19C7.49 11.26 7.44 11.33 7.38 11.38C7.33 11.44 7.26 11.49 7.19 11.54C7.12 11.58 7.05 11.62 6.98 11.65C6.9 11.69 6.82 11.71 6.74 11.73C6.66 11.74 6.58 11.75 6.5 11.75C6.42 11.75 6.34 11.74 6.26 11.73C6.18 11.71 6.1 11.69 6.02 11.65C5.95 11.62 5.87 11.58 5.81 11.54C5.74 11.49 5.67 11.44 5.62 11.38C5.56 11.33 5.51 11.26 5.46 11.19C5.42 11.13 5.38 11.05 5.35 10.98C5.31 10.9 5.29 10.82 5.27 10.74C5.26 10.66 5.25 10.58 5.25 10.5C5.25 10.17 5.38 9.85 5.62 9.62C6.07 9.15 6.92 9.15 7.38 9.62C7.44 9.67 7.49 9.74 7.54 9.81C7.58 9.87 7.62 9.95 7.65 10.02C7.69 10.1 7.71 10.18 7.73 10.26C7.74 10.34 7.75 10.42 7.75 10.5C7.75 10.58 7.74 10.66 7.73 10.74ZM13.62 9.62C14.08 9.15 14.93 9.15 15.38 9.62C15.62 9.85 15.75 10.17 15.75 10.5C15.75 10.58 15.74 10.66 15.73 10.74C15.71 10.82 15.69 10.9 15.65 10.98C15.65 10.99 15.64 10.99 15.64 11C15.61 11.06 15.58 11.14 15.54 11.19C15.49 11.26 15.44 11.33 15.38 11.38C15.15 11.62 14.83 11.75 14.5 11.75C14.17 11.75 13.85 11.62 13.62 11.38C13.56 11.33 13.51 11.26 13.46 11.19C13.42 11.14 13.39 11.06 13.36 11C13.36 10.99 13.35 10.99 13.35 10.98C13.31 10.9 13.29 10.82 13.27 10.74C13.26 10.66 13.25 10.58 13.25 10.5C13.25 10.17 13.38 9.85 13.62 9.62ZM9.62 9.62C10.08 9.15 10.92 9.15 11.38 9.62C11.62 9.85 11.75 10.17 11.75 10.5C11.75 10.58 11.74 10.66 11.73 10.74C11.71 10.82 11.69 10.9 11.65 10.98C11.62 11.04 11.59 11.11 11.55 11.17C11.55 11.18 11.54 11.18 11.54 11.19C11.49 11.26 11.44 11.33 11.38 11.38C11.15 11.62 10.83 11.75 10.5 11.75C10.42 11.75 10.34 11.74 10.26 11.73C10.18 11.71 10.1 11.69 10.02 11.65C9.95 11.62 9.87 11.58 9.81 11.54C9.74 11.49 9.67 11.44 9.62 11.38C9.56 11.33 9.51 11.26 9.46 11.19C9.42 11.13 9.38 11.05 9.35 10.98C9.31 10.9 9.29 10.82 9.27 10.74C9.26 10.66 9.25 10.58 9.25 10.5C9.25 10.17 9.38 9.85 9.62 9.62ZM20 19H12.78C11.52 19 10.45 18.16 10.11 17H13.11C15.57 17 17.67 15.49 18.56 13.35C19.42 13.82 20 14.74 20 15.78V19Z" fill="white"/>
    </g>
    <defs>
        <clipPath id="clip0_65_2842">
            <rect width="24" height="24" fill="white"/>
        </clipPath>
    </defs>
</svg>
