<svg width="24" height="24" viewBox="0 0 24 24" fill="none" xmlns="http://www.w3.org/2000/svg">
<g clip-path="url(#clip0_65_2945)">
<path d="M11 17V19C11 20.1 10.1 21 9 21H5C3.9 21 3 20.1 3 19V17C3 15.9 3.9 15 5 15H9C10.1 15 11 15.9 11 17Z" fill="#121331"/>
<path d="M11 5V11C11 12.1 10.1 13 9 13H5C3.9 13 3 12.1 3 11V5C3 3.9 3.9 3 5 3H9C10.1 3 11 3.9 11 5Z" fill="#121331"/>
<path d="M21 5V7C21 8.1 20.1 9 19 9H15C13.9 9 13 8.1 13 7V5C13 3.9 13.9 3 15 3H19C20.1 3 21 3.9 21 5Z" fill="#121331"/>
<path d="M21 13V19C21 20.1 20.1 21 19 21H15C13.9 21 13 20.1 13 19V13C13 11.9 13.9 11 15 11H19C20.1 11 21 11.9 21 13Z" fill="#121331"/>
</g>
<defs>
<clipPath id="clip0_65_2945">
<rect width="24" height="24" fill="white"/>
</clipPath>
</defs>
</svg>
