<svg width="30" height="30" viewBox="0 0 30 30" fill="none" xmlns="http://www.w3.org/2000/svg">
<rect width="30" height="30" rx="15" fill="#6A75DF"/>
<path d="M14.7784 13.4375H12.2898C12.2443 13.1155 12.1515 12.8295 12.0114 12.5795C11.8712 12.3258 11.6913 12.1098 11.4716 11.9318C11.2519 11.7538 10.9981 11.6174 10.7102 11.5227C10.4261 11.428 10.1174 11.3807 9.78409 11.3807C9.18182 11.3807 8.6572 11.5303 8.21023 11.8295C7.76326 12.125 7.41667 12.5568 7.17045 13.125C6.92424 13.6894 6.80114 14.375 6.80114 15.1818C6.80114 16.0114 6.92424 16.7083 7.17045 17.2727C7.42045 17.8371 7.76894 18.2633 8.21591 18.5511C8.66288 18.839 9.17992 18.983 9.76705 18.983C10.0966 18.983 10.4015 18.9394 10.6818 18.8523C10.9659 18.7652 11.2178 18.6383 11.4375 18.4716C11.6572 18.3011 11.839 18.0947 11.983 17.8523C12.1307 17.6098 12.233 17.3333 12.2898 17.0227L14.7784 17.0341C14.714 17.5682 14.553 18.0833 14.2955 18.5795C14.0417 19.072 13.6989 19.5133 13.267 19.9034C12.839 20.2898 12.3277 20.5966 11.733 20.8239C11.142 21.0473 10.4735 21.1591 9.72727 21.1591C8.68939 21.1591 7.76136 20.9242 6.94318 20.4545C6.12879 19.9848 5.48485 19.3049 5.01136 18.4148C4.54167 17.5246 4.30682 16.447 4.30682 15.1818C4.30682 13.9129 4.54545 12.8333 5.02273 11.9432C5.5 11.053 6.14773 10.375 6.96591 9.90909C7.78409 9.43939 8.70455 9.20455 9.72727 9.20455C10.4015 9.20455 11.0265 9.29924 11.6023 9.48864C12.1818 9.67803 12.6951 9.95455 13.142 10.3182C13.589 10.678 13.9527 11.1193 14.233 11.642C14.517 12.1648 14.6989 12.7633 14.7784 13.4375ZM16.5426 21V9.36364H21.2017C22.0578 9.36364 22.7718 9.49053 23.3438 9.74432C23.9157 9.99811 24.3456 10.3504 24.6335 10.8011C24.9214 11.2481 25.0653 11.7633 25.0653 12.3466C25.0653 12.8011 24.9744 13.2008 24.7926 13.5455C24.6108 13.8864 24.3608 14.1667 24.0426 14.3864C23.7282 14.6023 23.3684 14.7557 22.9631 14.8466V14.9602C23.4063 14.9792 23.821 15.1042 24.2074 15.3352C24.5975 15.5663 24.9138 15.8902 25.1562 16.3068C25.3987 16.7197 25.5199 17.2121 25.5199 17.7841C25.5199 18.4015 25.3665 18.9527 25.0597 19.4375C24.7566 19.9186 24.3078 20.2992 23.7131 20.5795C23.1184 20.8598 22.3854 21 21.5142 21H16.5426ZM19.0028 18.9886H21.0085C21.6941 18.9886 22.1941 18.858 22.5085 18.5966C22.8229 18.3314 22.9801 17.9792 22.9801 17.5398C22.9801 17.2178 22.9025 16.9337 22.7472 16.6875C22.5919 16.4413 22.3703 16.2481 22.0824 16.108C21.7983 15.9678 21.4593 15.8977 21.0653 15.8977H19.0028V18.9886ZM19.0028 14.233H20.8267C21.1638 14.233 21.4631 14.1742 21.7244 14.0568C21.9896 13.9356 22.1979 13.7652 22.3494 13.5455C22.5047 13.3258 22.5824 13.0625 22.5824 12.7557C22.5824 12.3352 22.4328 11.9962 22.1335 11.7386C21.8381 11.4811 21.4176 11.3523 20.8722 11.3523H19.0028V14.233Z" fill="white"/>
</svg>
