<svg width="24" height="24" viewBox="0 0 24 24" fill="none" xmlns="http://www.w3.org/2000/svg">
    <g clip-path="url(#clip0_65_2769)">
        <path d="M19 5.5V8C19 8.55 18.55 9 18 9H16.5C15.12 9 14 7.88 14 6.5V5.5C14 4.12 15.12 3 16.5 3C17.88 3 19 4.12 19 5.5Z" fill="white"/>
        <path d="M10 5.5V8C10 8.55 9.55 9 9 9H7.5C6.12 9 5 7.88 5 6.5V5.5C5 4.12 6.12 3 7.5 3C8.88 3 10 4.12 10 5.5Z" fill="white"/>
        <path d="M18 21C18 21.55 17.55 22 17 22H7C6.45 22 6 21.55 6 21C6 18.79 7.79 17 10 17H14C16.21 17 18 18.79 18 21Z" fill="white"/>
        <path d="M7 16H3C2.45 16 2 15.55 2 15V14.44C2 12.07 3.87 10 6 10H7C7.55 10 8 10.45 8 11C8 11.55 7.55 12 7 12H6C5.19 12 4.24 12.86 4.04 14H7C7.55 14 8 14.45 8 15C8 15.55 7.55 16 7 16Z" fill="white"/>
        <path d="M21 16H17C16.45 16 16 15.55 16 15C16 14.45 16.45 14 17 14H19.96C19.76 12.86 18.8 12 18 12H17C16.45 12 16 11.55 16 11C16 10.45 16.45 10 17 10H18C20.13 10 22 12.07 22 14.44V15C22 15.55 21.55 16 21 16Z" fill="white"/>
        <path d="M14.5 11.5V14C14.5 14.55 14.05 15 13.5 15H12C10.62 15 9.5 13.88 9.5 12.5V11.5C9.5 10.12 10.62 9 12 9C13.38 9 14.5 10.12 14.5 11.5Z" fill="white"/>
    </g>
    <defs>
        <clipPath id="clip0_65_2769">
            <rect width="24" height="24" fill="white"/>
        </clipPath>
    </defs>
</svg>
