<svg width="24" height="24" viewBox="0 0 24 24" fill="none" xmlns="http://www.w3.org/2000/svg">
    <g clip-path="url(#clip0_65_2803)">
        <path d="M19 3H5C3.9 3 3 3.9 3 5V19C3 20.1 3.9 21 5 21H19C20.1 21 21 20.1 21 19V5C21 3.9 20.1 3 19 3ZM13.23 17.49C13.21 17.57 13.19 17.65 13.15 17.73C13.12 17.8 13.08 17.87 13.04 17.94C12.99 18.01 12.94 18.07 12.88 18.13C12.82 18.19 12.76 18.24 12.69 18.29C12.62 18.33 12.55 18.37 12.48 18.4C12.4 18.43 12.32 18.46 12.24 18.47C12.16 18.49 12.08 18.5 12 18.5C11.67 18.5 11.35 18.36 11.12 18.13C10.88 17.9 10.75 17.58 10.75 17.25C10.75 17.17 10.76 17.08 10.77 17C10.79 16.92 10.81 16.85 10.85 16.77C10.88 16.69 10.92 16.62 10.96 16.55C11.01 16.49 11.06 16.42 11.12 16.36C11.41 16.07 11.84 15.94 12.24 16.02C12.32 16.04 12.4 16.06 12.48 16.09C12.55 16.12 12.62 16.16 12.69 16.21C12.76 16.25 12.82 16.31 12.88 16.36C12.94 16.42 12.99 16.49 13.04 16.55C13.08 16.62 13.12 16.69 13.15 16.77C13.19 16.85 13.21 16.92 13.23 17C13.24 17.08 13.25 17.17 13.25 17.25C13.25 17.33 13.24 17.41 13.23 17.49ZM13.84 12.35C13.31 12.68 13 13.2 13 13.75C13 14.3 12.55 14.75 12 14.75C11.45 14.75 11 14.3 11 13.75C11 12.51 11.66 11.36 12.77 10.66C13.22 10.38 13.66 9.74 13.44 8.88C13.32 8.37 12.9 7.94 12.41 7.8C11.94 7.68 11.48 7.77 11.11 8.05C10.72 8.35 10.5 8.81 10.5 9.32C10.5 9.87 10.05 10.32 9.5 10.32C8.95 10.32 8.5 9.87 8.5 9.32C8.5 8.19 9.01 7.15 9.89 6.47C10.75 5.81 11.85 5.59 12.92 5.87C14.11 6.19 15.08 7.18 15.38 8.39C15.77 9.93 15.15 11.53 13.84 12.35Z" fill="white"/>
    </g>
    <defs>
        <clipPath id="clip0_65_2803">
            <rect width="24" height="24" fill="white"/>
        </clipPath>
    </defs>
</svg>
