<svg width="24" height="24" viewBox="0 0 24 24" fill="none" xmlns="http://www.w3.org/2000/svg">
    <g clip-path="url(#clip0_65_2749)">
        <path d="M11.9999 2H11.7599C6.2399 2.14 1.8699 6.72 1.9999 12.24C2.0599 14.93 3.1799 17.35 4.9599 19.1C5.1899 19.32 5.4299 19.54 5.6799 19.74C5.9299 19.94 6.1799 20.13 6.4499 20.31C6.5799 20.4 6.7199 20.48 6.8499 20.57C7.2599 20.81 7.6899 21.03 8.1399 21.22C8.2699 21.27 8.3999 21.32 8.5299 21.38C8.5499 21.38 8.5699 21.39 8.5899 21.4C8.7199 21.45 8.8599 21.5 8.9999 21.54C9.1399 21.58 9.2799 21.62 9.4199 21.66C9.5699 21.7 9.7199 21.74 9.8699 21.77C9.9199 21.78 9.9699 21.79 10.0199 21.8C10.0899 21.82 10.1699 21.83 10.2399 21.84C10.3799 21.87 10.5299 21.89 10.6799 21.91C11.0999 21.97 11.5399 22 11.9799 22H12.2399C12.5799 21.99 12.9199 21.96 13.2499 21.92C13.5599 21.88 13.8699 21.83 14.1699 21.76C14.1899 21.75 14.1999 21.75 14.2199 21.75C14.6699 21.64 15.1099 21.51 15.5299 21.35C15.6799 21.29 15.8199 21.23 15.9699 21.17C16.0699 21.13 16.1699 21.08 16.2699 21.04C16.6299 20.87 16.9799 20.67 17.3199 20.46C17.4599 20.38 17.5899 20.29 17.7199 20.2C17.8499 20.11 17.9799 20.02 18.0999 19.92C18.4299 19.67 18.7399 19.39 19.0399 19.1C20.9299 17.23 22.0699 14.62 21.9999 11.76C21.8699 6.32 17.4199 2 11.9999 2ZM18.1699 17.08C17.2599 15.82 15.7999 15 14.1499 15H9.8399C8.1999 15 6.7399 15.81 5.8299 17.07C4.7299 15.73 4.0499 14.03 3.9999 12.19C3.8999 7.78 7.3999 4.11 11.8099 4H11.9999C16.3099 4 19.8899 7.5 19.9999 11.81C20.0499 13.81 19.3499 15.65 18.1699 17.08Z" fill="white"/>
        <path d="M15 8.52V12.02C15 12.56 14.56 13 14.02 13H11.52C10.13 13 9 11.87 9 10.48V8.52C9 7.13 10.13 6 11.52 6H12.48C13.87 6 15 7.13 15 8.52Z" fill="white"/>
    </g>
    <defs>
        <clipPath id="clip0_65_2749">
            <rect width="24" height="24" fill="white"/>
        </clipPath>
    </defs>
</svg>
