<svg width="24" height="24" viewBox="0 0 24 24" fill="none" xmlns="http://www.w3.org/2000/svg">
    <g clip-path="url(#clip0_65_2960)">
        <path d="M18.28 4.65C18.14 4.26 17.76 4 17.34 4H6.66C6.24 4 5.86 4.26 5.72 4.65L3 12V19C3 20.1 3.9 21 5 21H19C20.1 21 21 20.1 21 19V12L18.28 4.65ZM7.35 6H16.65L18.87 12H16C15.45 12 15 12.45 15 13V15C15 15.55 14.55 16 14 16H10C9.45 16 9 15.55 9 15V13C9 12.45 8.55 12 8 12H5.13L7.35 6Z" fill="white"/>
    </g>
    <defs>
        <clipPath id="clip0_65_2960">
            <rect width="24" height="24" fill="white"/>
        </clipPath>
    </defs>
</svg>
