<svg width="24" height="24" viewBox="0 0 24 24" fill="none" xmlns="http://www.w3.org/2000/svg">
    <g clip-path="url(#clip0_65_2819)">
        <path d="M12.0001 20C7.50006 20 3.60006 16.98 2.05006 12.31C1.98006 12.11 1.98006 11.89 2.05006 11.68C3.60006 7.02 7.50006 4 12.0001 4C16.5001 4 20.4001 7.02 21.9501 11.69C22.0201 11.89 22.0201 12.11 21.9501 12.32C20.4001 16.98 16.5001 20 12.0001 20ZM4.06006 12C5.40006 15.66 8.48006 18 12.0001 18C15.5201 18 18.6001 15.66 19.9401 12C18.6001 8.34 15.5201 6 12.0001 6C8.48006 6 5.39006 8.34 4.06006 12Z" fill="white"/>
        <path d="M12 16C14.2091 16 16 14.2091 16 12C16 9.79086 14.2091 8 12 8C9.79086 8 8 9.79086 8 12C8 14.2091 9.79086 16 12 16Z" fill="white"/>
    </g>
    <defs>
        <clipPath id="clip0_65_2819">
            <rect width="24" height="24" fill="white"/>
        </clipPath>
    </defs>
</svg>
