<svg width="17" height="21" viewBox="0 0 17 21" fill="none" xmlns="http://www.w3.org/2000/svg">
    <path d="M15.05 20.25H13C12.45 20.25 12 19.8 12 19.25C12 18.7 12.45 18.25 13 18.25H15.05L15 2.22L6.95 2.25L7 4.25C7 4.8 6.55 5.25 6 5.25C5.45 5.25 5 4.8 5 4.25V2.22C5 1.14 5.88 0.25 6.95 0.25H15.05C16.12 0.25 17 1.14 17 2.22V18.27C17 19.37 16.12 20.25 15.05 20.25Z" fill="white"/>
    <path d="M13.0601 5.53L12.3401 6.77C12.2001 7 11.9601 7.13 11.7101 7.13C11.5901 7.13 11.4701 7.09999 11.3501 7.02999L10.7301 6.67C10.0401 6.27 9.80009 5.39 10.2001 4.71L10.5601 4.09C10.8301 3.62 11.3201 3.37 11.8101 3.37C12.0501 3.37 12.3101 3.42 12.5301 3.56C13.2201 3.95 13.4501 4.84 13.0601 5.53Z" fill="white"/>
    <path d="M14.0002 13.25C14.0002 13.8 13.5502 14.25 13.0002 14.25H10.9502C10.4002 14.25 9.95017 13.8 9.95017 13.25V10.63L8.48017 12.97L9.89017 15.8C9.96017 15.94 10.0002 16.09 10.0002 16.25V19.25C10.0002 19.8 9.55017 20.25 9.00017 20.25C8.45017 20.25 8.00017 19.8 8.00017 19.25V16.49L6.46017 13.4L4.83017 15.81C4.70017 15.99 4.52017 16.13 4.32017 16.2L1.32017 17.2C1.21017 17.23 1.10017 17.25 1.00017 17.25C0.580173 17.25 0.190173 16.99 0.050173 16.57C-0.119827 16.04 0.160173 15.48 0.680173 15.3L3.36017 14.41L6.86017 9.25H5.41017L3.71017 10.96C3.32017 11.35 2.68017 11.35 2.29017 10.96C1.90017 10.57 1.90017 9.93 2.29017 9.54L4.29017 7.54C4.48017 7.36 4.73017 7.25 5.00017 7.25H9.05017C10.6502 7.25 11.9502 8.6 11.9502 10.25V12.25H13.0002C13.5502 12.25 14.0002 12.7 14.0002 13.25Z" fill="white"/>
</svg>
