<svg width="12" height="12" viewBox="0 0 12 12" fill="none" xmlns="http://www.w3.org/2000/svg">
<path d="M10.0249 1.77666C8.89322 0.703329 7.43489 0.119996 5.85989 0.166662C4.30239 0.207496 2.84989 0.849162 1.77656 1.975C0.703223 3.10666 0.131556 4.5825 0.166556 6.14C0.242389 9.3075 2.84406 11.8333 5.99989 11.8333H6.13989C7.69739 11.7925 9.14989 11.1508 10.2232 10.025C11.2966 8.89333 11.8682 7.4175 11.8332 5.86C11.7924 4.3025 11.1507 2.85 10.0249 1.77666ZM8.84656 4.95L5.63239 8.16416C5.51572 8.275 5.36989 8.33333 5.21822 8.33333C5.06656 8.33333 4.92072 8.275 4.80406 8.16416L3.34572 6.7C3.11822 6.4725 3.11822 6.105 3.34572 5.8775C3.57322 5.65 3.94072 5.65 4.16822 5.8775L5.21822 6.9275L8.02406 4.1275C8.25156 3.9 8.61906 3.9 8.84656 4.1275C9.07406 4.355 9.07406 4.7225 8.84656 4.95Z" fill="#7BE3AC"/>
</svg>
