<svg width="24" height="24" viewBox="0 0 24 24" fill="none" xmlns="http://www.w3.org/2000/svg">
    <g clip-path="url(#clip0_65_2969)">
        <path d="M18 2H6C4.9 2 4 2.9 4 4V20C4 21.1 4.9 22 6 22H18C19.1 22 20 21.1 20 20V4C20 2.9 19.1 2 18 2ZM7 5.12C7 4.5 7.5 4 8.12 4H10.88C11.5 4 12 4.5 12 5.12V7.88C12 8.5 11.5 9 10.88 9H8.12C7.5 9 7 8.5 7 7.88V5.12ZM11.12 20.01H7.76C7.34 20.01 7.01 19.67 7.01 19.26C7.01 18.84 7.34 18.51 7.76 18.51H11.12C11.54 18.51 11.88 18.84 11.88 19.26C11.88 19.67 11.54 20.01 11.12 20.01ZM16.22 16.5H7.72C7.3 16.5 6.97 16.17 6.97 15.75C6.97 15.34 7.3 15 7.72 15H16.22C16.63 15 16.97 15.34 16.97 15.75C16.97 16.17 16.63 16.5 16.22 16.5ZM16.22 13H7.73C7.32 13 6.98 12.66 6.98 12.25C6.98 11.84 7.32 11.5 7.73 11.5H16.22C16.63 11.5 16.97 11.84 16.97 12.25C16.97 12.66 16.63 13 16.22 13Z" fill="white"/>
    </g>
    <defs>
        <clipPath id="clip0_65_2969">
            <rect width="24" height="24" fill="white"/>
        </clipPath>
    </defs>
</svg>
