<svg width="30" height="29" viewBox="0 0 30 29" fill="none" xmlns="http://www.w3.org/2000/svg">
<circle cx="14.8072" cy="14.2691" r="13.7935" transform="rotate(-90 14.8072 14.2691)" fill="white" stroke="#1F4677" stroke-width="0.951276"/>
<path fill-rule="evenodd" clip-rule="evenodd" d="M9.5752 14.4472C9.5752 14.2737 9.64409 14.1074 9.76673 13.9848C9.88936 13.8621 10.0557 13.7933 10.2291 13.7933H17.8055L14.9976 10.9866C14.9368 10.9258 14.8885 10.8536 14.8556 10.7742C14.8227 10.6947 14.8058 10.6096 14.8058 10.5236C14.8058 10.4376 14.8227 10.3525 14.8556 10.273C14.8885 10.1936 14.9368 10.1214 14.9976 10.0606C15.0584 9.99982 15.1306 9.95159 15.21 9.91869C15.2894 9.88579 15.3746 9.86885 15.4606 9.86885C15.5465 9.86885 15.6317 9.88579 15.7111 9.91869C15.7906 9.95159 15.8627 9.99982 15.9235 10.0606L19.8471 13.9842C19.908 14.0449 19.9563 14.1171 19.9893 14.1966C20.0223 14.276 20.0392 14.3612 20.0392 14.4472C20.0392 14.5332 20.0223 14.6184 19.9893 14.6978C19.9563 14.7773 19.908 14.8494 19.8471 14.9102L15.9235 18.8337C15.8627 18.8945 15.7906 18.9428 15.7111 18.9757C15.6317 19.0086 15.5465 19.0255 15.4606 19.0255C15.3746 19.0255 15.2894 19.0086 15.21 18.9757C15.1306 18.9428 15.0584 18.8945 14.9976 18.8337C14.8748 18.7109 14.8058 18.5444 14.8058 18.3708C14.8058 18.2848 14.8227 18.1996 14.8556 18.1202C14.8885 18.0408 14.9368 17.9686 14.9976 17.9078L17.8055 15.1011H10.2291C10.0557 15.1011 9.88936 15.0322 9.76673 14.9096C9.64409 14.7869 9.5752 14.6206 9.5752 14.4472Z" fill="black"/>
</svg>
