<svg width="29" height="29" viewBox="0 0 29 29" fill="none" xmlns="http://www.w3.org/2000/svg">
<circle cx="14.2689" cy="14.2691" r="13.7935" transform="rotate(90 14.2689 14.2691)" fill="white" stroke="#1F4677" stroke-width="0.951276"/>
<path fill-rule="evenodd" clip-rule="evenodd" d="M19.501 14.0911C19.501 14.2645 19.4321 14.4309 19.3094 14.5535C19.1868 14.6761 19.0205 14.745 18.847 14.745H11.2706L14.0786 17.5517C14.1394 17.6125 14.1876 17.6847 14.2205 17.7641C14.2534 17.8435 14.2704 17.9287 14.2704 18.0147C14.2704 18.1006 14.2534 18.1858 14.2205 18.2652C14.1876 18.3447 14.1394 18.4168 14.0786 18.4776C14.0178 18.5384 13.9456 18.5867 13.8662 18.6196C13.7867 18.6525 13.7016 18.6694 13.6156 18.6694C13.5296 18.6694 13.4445 18.6525 13.365 18.6196C13.2856 18.5867 13.2134 18.5384 13.1526 18.4776L9.22906 14.5541C9.16816 14.4933 9.11984 14.4212 9.08687 14.3417C9.05391 14.2623 9.03694 14.1771 9.03694 14.0911C9.03694 14.0051 9.05391 13.9199 9.08687 13.8405C9.11984 13.761 9.16816 13.6889 9.22906 13.6281L13.1526 9.70453C13.2134 9.64373 13.2856 9.5955 13.365 9.5626C13.4445 9.52969 13.5296 9.51276 13.6156 9.51276C13.7016 9.51276 13.7867 9.52969 13.8662 9.5626C13.9456 9.5955 14.0178 9.64373 14.0786 9.70453C14.2014 9.82732 14.2704 9.99386 14.2704 10.1675C14.2704 10.2535 14.2534 10.3386 14.2205 10.4181C14.1876 10.4975 14.1394 10.5697 14.0786 10.6305L11.2706 13.4372H18.847C19.0205 13.4372 19.1868 13.5061 19.3094 13.6287C19.4321 13.7513 19.501 13.9177 19.501 14.0911Z" fill="black"/>
</svg>
