<svg width="20" height="21" viewBox="0 0 20 21" fill="none" xmlns="http://www.w3.org/2000/svg">
    <path d="M18.8299 12.96L16.8999 11.85C16.9699 11.49 16.9999 11.13 16.9999 10.75C16.9999 10.37 16.9699 10.01 16.8999 9.65L18.8299 8.54C19.4199 8.19 19.6299 7.43 19.2899 6.83L18.0399 4.67C17.8699 4.38 17.5999 4.17 17.2799 4.08C16.9499 4 16.6099 4.04 16.3299 4.21L14.4099 5.32C13.8399 4.85 13.1999 4.48 12.4999 4.22V2C12.4999 1.31 11.9399 0.75 11.2499 0.75H8.74993C8.05993 0.75 7.49993 1.31 7.49993 2V4.22C6.79993 4.48 6.15993 4.85 5.58993 5.32L3.66993 4.21C3.37993 4.04 3.04993 4 2.71993 4.08C2.39993 4.17 2.12993 4.38 1.95993 4.67L0.70993 6.83C0.36993 7.43 0.57993 8.2 1.16993 8.54L3.09993 9.65C3.02993 10.01 2.99993 10.37 2.99993 10.75C2.99993 11.13 3.02993 11.49 3.09993 11.85L1.16993 12.96C0.57993 13.3 0.36993 14.07 0.70993 14.67L1.95993 16.83C2.12993 17.12 2.39993 17.33 2.71993 17.42C2.82993 17.44 2.93993 17.46 3.04993 17.46C3.26993 17.46 3.47993 17.4 3.66993 17.29L5.58993 16.18C6.15993 16.65 6.79993 17.02 7.49993 17.28V19.5C7.49993 20.19 8.05993 20.75 8.74993 20.75H11.2499C11.9399 20.75 12.4999 20.19 12.4999 19.5V17.28C13.1999 17.02 13.8399 16.65 14.4099 16.18L16.3299 17.29C16.5199 17.4 16.7299 17.46 16.9499 17.46C17.0599 17.46 17.1699 17.44 17.2799 17.42C17.5999 17.33 17.8699 17.12 18.0399 16.83L19.2899 14.67C19.6299 14.07 19.4199 13.31 18.8299 12.96ZM6.49993 10.75C6.49993 8.82 8.06993 7.25 9.99993 7.25C11.9299 7.25 13.4999 8.82 13.4999 10.75C13.4999 12.68 11.9299 14.25 9.99993 14.25C8.06993 14.25 6.49993 12.68 6.49993 10.75Z" fill="#0EB7DD"/>
</svg>