<svg width="24" height="24" viewBox="0 0 24 24" fill="none" xmlns="http://www.w3.org/2000/svg">
    <g clip-path="url(#clip0_65_2741)">
        <path d="M13 9.75C12.59 9.75 12.25 9.41 12.25 9V2H5.97C4.88 2 4 2.89 4 3.97V20.03C4 21.11 4.88 22 5.97 22H18.03C19.12 22 20 21.11 20 20.03V9.75H13ZM14.62 16.38H13V18C13 18.55 12.55 19 12 19C11.45 19 11 18.55 11 18V16.38H9.38C8.82 16.38 8.38 15.93 8.38 15.38C8.38 14.82 8.82 14.38 9.38 14.38H11V13C11 12.45 11.45 12 12 12C12.55 12 13 12.45 13 13V14.38H14.62C15.18 14.38 15.62 14.82 15.62 15.38C15.62 15.93 15.18 16.38 14.62 16.38Z" fill="white"/>
        <path d="M13.7598 2L19.9998 8.24H13.7598V2Z" fill="white"/>
    </g>
    <defs>
        <clipPath id="clip0_65_2741">
            <rect width="24" height="24" fill="white"/>
        </clipPath>
    </defs>
</svg>
